<svg width="20" height="20" viewBox="0 0 20 20" fill="none" xmlns="http://www.w3.org/2000/svg">
<path d="M14.1667 7.64174C14.0106 7.48653 13.7994 7.39941 13.5792 7.39941C13.3591 7.39941 13.1478 7.48653 12.9917 7.64174L10 10.5917L7.05004 7.64174C6.8939 7.48653 6.68269 7.39941 6.46254 7.39941C6.24238 7.39941 6.03117 7.48653 5.87504 7.64174C5.79693 7.71921 5.73494 7.81138 5.69263 7.91293C5.65032 8.01448 5.62854 8.1234 5.62854 8.23341C5.62854 8.34342 5.65032 8.45234 5.69263 8.55389C5.73494 8.65544 5.79693 8.74761 5.87504 8.82507L9.40837 12.3584C9.48584 12.4365 9.57801 12.4985 9.67956 12.5408C9.78111 12.5831 9.89003 12.6049 10 12.6049C10.11 12.6049 10.219 12.5831 10.3205 12.5408C10.4221 12.4985 10.5142 12.4365 10.5917 12.3584L14.1667 8.82507C14.2448 8.74761 14.3068 8.65544 14.3491 8.55389C14.3914 8.45234 14.4132 8.34342 14.4132 8.23341C14.4132 8.1234 14.3914 8.01448 14.3491 7.91293C14.3068 7.81138 14.2448 7.71921 14.1667 7.64174Z" fill="#959595"/>
</svg>
