<svg width="17" height="16" viewBox="0 0 17 16" fill="none" xmlns="http://www.w3.org/2000/svg">
<path fill-rule="evenodd" clip-rule="evenodd" d="M12.3047 5.13807C12.5651 4.87772 12.5651 4.45561 12.3047 4.19526C12.0444 3.93491 11.6223 3.93491 11.3619 4.19526L8.5 7.05719L5.63807 4.19526C5.37772 3.93491 4.95561 3.93491 4.69526 4.19526C4.43491 4.45561 4.43491 4.87772 4.69526 5.13807L7.55719 8L4.69526 10.8619C4.43491 11.1223 4.43491 11.5444 4.69526 11.8047C4.95561 12.0651 5.37772 12.0651 5.63807 11.8047L8.5 8.94281L11.3619 11.8047C11.6223 12.0651 12.0444 12.0651 12.3047 11.8047C12.5651 11.5444 12.5651 11.1223 12.3047 10.8619L9.44281 8L12.3047 5.13807Z" fill="#959595"/>
</svg>
